<svg xmlns="http://www.w3.org/2000/svg" xmlns:xlink="http://www.w3.org/1999/xlink" width="600" height="92.108" viewBox="0 0 600 92.108">
  <defs>
    <clipPath id="clip-path">
      <path id="패스_25108" data-name="패스 25108" d="M0,.259l5.514,59.7c5.943-14.515,14.62-26.271,24.539-33.648L27.686.259Z" transform="translate(0 -0.259)" fill="none"/>
    </clipPath>
    <linearGradient id="linear-gradient" x1="0.066" y1="1.502" x2="0.102" y2="1.502" gradientUnits="objectBoundingBox">
      <stop offset="0" stop-color="#006fdf"/>
      <stop offset="1" stop-color="#3fa9f5"/>
    </linearGradient>
    <clipPath id="clip-path-2">
      <path id="패스_25109" data-name="패스 25109" d="M102.929.322c1.44,7.043,1.291,17.939-.759,29.909C98.744,50.255,91.3,65.687,85.546,64.7c-1.438-.247-2.634-1.494-3.566-3.541q-.741-3.388-1.743-6.527c-4.61-14.4-13.281-24.485-24.542-26.413-.746-.127-1.492-.215-2.239-.268C33.446,26.519,13.138,51.321,7.384,84.934q-.568,3.318-.921,6.581H34.1q.144-.922.3-1.855C37.833,69.636,45.276,54.2,51.03,55.188c1.639.28,2.962,1.874,3.94,4.46q.518,2.212,1.154,4.316c4.515,15,13.338,25.553,24.886,27.529.052.009.1.015.154.022,20.667,3.394,42.2-21.955,48.158-56.735A98.144,98.144,0,0,0,129.349.322Z" transform="translate(-6.463 -0.322)" fill="none"/>
    </clipPath>
    <linearGradient id="linear-gradient-2" x1="-0.064" y1="0.969" x2="-0.054" y2="0.969" gradientUnits="objectBoundingBox">
      <stop offset="0" stop-color="#114194"/>
      <stop offset="1" stop-color="#111259"/>
    </linearGradient>
    <clipPath id="clip-path-3">
      <rect id="사각형_26599" data-name="사각형 26599" width="600" height="92.108" fill="none"/>
    </clipPath>
  </defs>
  <g id="그룹_9191" data-name="그룹 9191" transform="translate(0 0)">
    <g id="그룹_9186" data-name="그룹 9186" transform="translate(0 0.32)">
      <g id="그룹_9185" data-name="그룹 9185" clip-path="url(#clip-path)">
        <rect id="사각형_26597" data-name="사각형 26597" width="34.635" height="61.866" transform="translate(-4.66 0.366) rotate(-4.491)" fill="url(#linear-gradient)"/>
      </g>
    </g>
    <g id="그룹_9188" data-name="그룹 9188" transform="translate(7.977 0.397)">
      <g id="그룹_9187" data-name="그룹 9187" clip-path="url(#clip-path-2)">
        <rect id="사각형_26598" data-name="사각형 26598" width="124.966" height="94.587" transform="translate(0 0)" fill="url(#linear-gradient-2)"/>
      </g>
    </g>
    <g id="그룹_9190" data-name="그룹 9190" transform="translate(0 0)">
      <g id="그룹_9189" data-name="그룹 9189" clip-path="url(#clip-path-3)">
        <path id="패스_25110" data-name="패스 25110" d="M136.569,18.774h20.587L145.184,86.666H124.6Z" transform="translate(29.194 4.399)" fill="#006fdf"/>
        <path id="패스_25111" data-name="패스 25111" d="M195.151,45.034c1.494-8.47-1.893-10.685-6.063-10.685-6.646,0-10,5.735-11.542,14.465l-6.709,38.05H150.251l9.467-53.687a134.5,134.5,0,0,0,1.982-14.2h18.763c-.268,3-.674,6.778-1.477,11.337h.26c4.437-7.427,10.523-12.379,21.336-12.379,14.985,0,18,10.946,15.615,24.5l-7.835,44.435H187.776Z" transform="translate(35.205 4.201)" fill="#006fdf"/>
        <path id="패스_25112" data-name="패스 25112" d="M255.578,36.043a37.983,37.983,0,0,0-15.9-3.649c-5.342,0-8.146,2.606-8.561,4.952-.734,4.169,2.009,5.6,12.479,9.772,6.576,2.607,12.961,7.038,10.71,19.808-2.665,15.115-15.035,20.98-28.716,20.98-5.994,0-15-.652-21.705-3.257l3.324-15.9a29.534,29.534,0,0,0,16.111,4.692c9.641,0,10.89-3.388,11.419-6.385s-4.584-4.3-12.8-7.95c-6.638-3-12.663-8.73-10.526-20.85,1.286-7.3,8.8-20.328,28.991-20.328a57.525,57.525,0,0,1,18.411,2.736Z" transform="translate(47.771 4.201)" fill="#006fdf"/>
        <path id="패스_25113" data-name="패스 25113" d="M272.592,18.774,273.97,67.12h.26L292.4,18.774H315.85l.727,48.345h.26l18.036-48.345h19.544L324.336,86.666h-21.89l-2.32-49.649h-.26L280.687,86.666H258.275l-6.27-67.892Z" transform="translate(59.047 4.399)" fill="#114194"/>
        <path id="패스_25114" data-name="패스 25114" d="M344.478,22.23c5.641-1.693,15.221-4.3,22.648-4.3,23.843,0,27.569,9.9,24.9,25.021l-4.366,24.757c-1.77,10.035-2.444,14.6-2.857,19.156H366.046l1.133-9.382h-.26c-1.648,4.169-10.7,10.425-20.471,10.425-12.638,0-19.529-8.211-17.347-20.589,4-22.673,30.471-22.8,37.638-22.8h6.253c2.3-13.032-7.343-13.032-10.34-13.032-5.213,0-11.022,1.173-19.95,5.993Zm26.814,31.925c-8.208,0-21.2.521-23.2,11.858-1.563,8.861,5.6,8.861,7.3,8.861,1.824,0,12.294-.26,15.213-16.809Z" transform="translate(77.017 4.201)" fill="#114194"/>
        <path id="패스_25115" data-name="패스 25115" d="M386.287,18.774h21.368l3.983,48.345h.262l20.9-48.345h20.065L419.658,86.666H395.424Z" transform="translate(90.51 4.399)" fill="#114194"/>
        <path id="패스_25116" data-name="패스 25116" d="M495.817,58.325h-40c-1.426,8.08,2.477,15.508,14.074,15.508,7.035,0,14.531-2.607,20.094-5.342L487.642,84a70.018,70.018,0,0,1-22.188,3.91c-23.844,0-31.848-14.464-28.194-35.184,3.217-18.243,16.819-34.794,36.233-34.794,6.123,0,29.447,0,23.2,35.446ZM479.03,47.119c1.517-8.6.726-16.679-7.743-16.679-10.555,0-12.852,13.032-13.495,16.679Z" transform="translate(102.256 4.201)" fill="#114194"/>
        <path id="패스_25117" data-name="패스 25117" d="M138.27,0l-3.492,19.8,22.037-8.227L158.855,0Z" transform="translate(31.58 0)" fill="#006fdf"/>
      </g>
    </g>
  </g>
</svg>
